<?xml version="1.0" encoding="UTF-8"?>
<svg width="456" height="456" viewBox="0 0 456 456" xmlns="http://www.w3.org/2000/svg">
  <g fill="none" stroke="#FFFFFF" stroke-linecap="round" stroke-linejoin="round">
    <path d="M228 92v220" stroke-width="24"/>
    <path d="M173 316h110" stroke-width="24"/>
    <path d="M190 360h72" stroke-width="24"/>
    <path d="M228 92l-76 220" stroke-width="18"/>
    <path d="M228 92l76 220" stroke-width="18"/>
    <path d="M176 192h104" stroke-width="18"/>
    <path d="M162 246h132" stroke-width="18"/>
    <path d="M162 312l132-66" stroke-width="12" opacity="0.86"/>
    <path d="M294 312l-132-66" stroke-width="12" opacity="0.86"/>
  </g>
  <g fill="#FFFFFF">
    <circle cx="228" cy="92" r="18"/>
    <circle cx="152" cy="312" r="13"/>
    <circle cx="304" cy="312" r="13"/>
    <path d="M332 151c0-18 14-32 32-32s32 14 32 32-14 32-32 32-32-14-32-32Zm32-17c-9 0-16 7-16 17s7 17 16 17 16-7 16-17-7-17-16-17Z"/>
    <path d="M333 218h14l7-19h34l7 19h15l-31-78h-15l-31 78Zm26-32 12-34 12 34h-24Z"/>
    <path d="M418 218h15v-78h-15v78Z"/>
  </g>
</svg>
